# Blender v2.79 (sub 0) OBJ File: ''
# www.blender.org
mtllib brick.mtl
o Cube
v 0.100000 0.012829 -0.601923
v 0.100000 0.012829 0.598077
v -0.100000 0.012829 0.598077
v -0.100000 0.012829 -0.601923
v 0.100000 0.462829 -0.601923
v 0.100000 0.462829 0.598077
v -0.100000 0.462829 0.598077
v -0.100000 0.462829 -0.601923
vt 0.256241 0.504477
vt 0.006569 0.005131
vt 0.256241 0.005131
vt 0.510870 0.005411
vt 0.261197 0.504757
vt 0.261197 0.005411
vt 0.499563 0.956786
vt 0.000218 0.582277
vt 0.499563 0.582277
vt 0.751626 0.956546
vt 0.501954 0.582037
vt 0.751626 0.582037
vt 0.583502 0.519414
vt 0.958011 0.020069
vt 0.958011 0.519414
vt 0.750961 0.581983
vt 1.000633 0.956491
vt 0.750961 0.956491
vt 0.006569 0.504477
vt 0.510870 0.504756
vt 0.000218 0.956786
vt 0.501954 0.956546
vt 0.583502 0.020069
vt 1.000633 0.581983
vn 0.0000 -1.0000 0.0000
vn 0.0000 1.0000 -0.0000
vn 1.0000 -0.0000 0.0000
vn -0.0000 -0.0000 1.0000
vn -1.0000 -0.0000 -0.0000
vn 0.0000 0.0000 -1.0000
usemtl Material
s off
f 2/1/1 4/2/1 1/3/1
f 8/4/2 6/5/2 5/6/2
f 5/7/3 2/8/3 1/9/3
f 6/10/4 3/11/4 2/12/4
f 7/13/5 4/14/5 3/15/5
f 1/16/6 8/17/6 5/18/6
f 2/1/1 3/19/1 4/2/1
f 8/4/2 7/20/2 6/5/2
f 5/7/3 6/21/3 2/8/3
f 6/10/4 7/22/4 3/11/4
f 7/13/5 8/23/5 4/14/5
f 1/16/6 4/24/6 8/17/6
